<?xml version="1.0" standalone="no"?>
<!DOCTYPE svg PUBLIC "-//W3C//DTD SVG 20010904//EN"
 "http://www.w3.org/TR/2001/REC-SVG-20010904/DTD/svg10.dtd">
<svg version="1.0" xmlns="http://www.w3.org/2000/svg"
 width="1461.000000pt" height="1461.000000pt" viewBox="0 0 1461.000000 1461.000000"
 preserveAspectRatio="xMidYMid meet">

<g transform="translate(0.000000,1461.000000) scale(0.100000,-0.100000)"
fill="#000000" stroke="none">
<path d="M3335 10831 c8 -14 -13 -43 -26 -35 -5 3 -9 -1 -9 -9 0 -8 -15 -22
-32 -31 -39 -20 -63 -34 -103 -62 -16 -11 -49 -29 -72 -39 -24 -10 -43 -22
-43 -27 0 -4 -35 -8 -77 -8 -53 -1 -84 -5 -97 -15 -11 -8 -26 -15 -33 -15 -17
0 -17 30 0 31 6 0 -1 5 -17 9 -17 5 -36 5 -46 0 -10 -5 -20 -7 -23 -3 -3 3
-24 7 -47 8 -23 2 -47 9 -55 15 -9 8 -19 8 -33 1 -24 -13 -47 -9 -70 12 -10 9
-24 17 -30 17 -7 0 -12 5 -12 10 0 6 -10 10 -21 10 -16 0 -20 -5 -16 -20 3
-13 0 -20 -10 -20 -8 0 -13 -7 -11 -18 2 -11 -4 -27 -12 -37 -14 -17 -13 -18
3 -12 26 10 17 -12 -13 -32 -14 -10 -21 -11 -16 -3 4 6 4 12 -1 12 -8 0 -53
-94 -53 -112 0 -7 -5 -6 -14 1 -10 9 -16 9 -21 1 -4 -6 -14 -9 -22 -5 -11 3
-39 -18 -85 -65 -155 -157 -289 -229 -532 -286 -76 -17 -128 -35 -145 -49 -35
-29 -118 -48 -213 -49 -70 -1 -82 -5 -80 -27 1 -3 -10 -4 -23 -1 l-25 4 0
-148 c0 -176 14 -418 36 -634 124 -1234 463 -2286 941 -2921 115 -153 95 -155
204 23 148 244 365 569 496 743 29 39 53 77 53 86 0 13 -77 52 -189 94 -14 5
-66 36 -114 68 -96 64 -142 121 -200 244 -26 57 -30 77 -30 152 -1 104 36 266
67 302 36 40 151 130 206 159 46 25 184 49 278 50 l92 0 0 29 c0 16 -9 51 -20
76 -48 112 -71 203 -81 320 -11 118 -11 121 15 190 15 38 41 91 58 117 45 72
142 154 233 199 79 40 82 40 190 40 129 -1 229 -26 364 -92 102 -50 209 -152
258 -245 71 -134 143 -373 143 -473 0 -17 2 -31 4 -31 13 0 103 44 186 90 105
58 333 159 508 225 l113 42 -53 44 c-29 24 -153 142 -275 261 -224 218 -356
362 -493 538 -40 52 -97 124 -125 160 -146 182 -457 682 -630 1010 -46 88 -77
136 -89 138 -12 3 -16 0 -11 -7z"/>
<path d="M11307 10817 c-8 -12 -34 -61 -57 -107 -129 -258 -493 -842 -635
-1020 -28 -36 -85 -108 -125 -160 -137 -176 -269 -320 -493 -538 -122 -119
-246 -237 -275 -261 l-53 -44 113 -42 c175 -66 403 -167 508 -225 83 -46 173
-90 186 -90 2 0 4 14 4 31 0 100 72 339 143 473 49 93 156 195 258 245 135 66
235 91 364 92 108 0 111 0 190 -40 91 -45 188 -127 233 -199 17 -26 43 -79 58
-117 26 -69 26 -72 15 -190 -10 -117 -33 -208 -81 -320 -11 -25 -20 -60 -20
-76 l0 -29 93 0 c93 -1 231 -25 277 -50 55 -29 170 -119 206 -159 31 -36 68
-198 67 -302 0 -75 -4 -95 -30 -152 -58 -123 -104 -180 -200 -244 -48 -32
-100 -63 -114 -68 -112 -42 -189 -81 -189 -94 0 -9 24 -47 53 -86 131 -174
348 -499 496 -743 109 -178 89 -176 204 -23 478 635 817 1687 941 2921 22 216
36 458 36 634 l0 148 -25 -4 c-13 -3 -24 -2 -23 1 2 22 -10 26 -80 27 -94 0
-178 20 -213 49 -17 14 -70 32 -145 50 -250 59 -377 128 -532 285 -46 47 -74
68 -85 65 -8 -4 -18 -1 -22 5 -5 8 -11 8 -21 -1 -9 -7 -14 -8 -14 -1 0 18 -45
112 -53 112 -5 0 -5 -6 -1 -12 5 -8 -2 -7 -16 3 -30 20 -39 42 -13 32 16 -6
17 -5 3 12 -8 10 -14 26 -12 37 2 11 -3 18 -11 18 -10 0 -13 7 -10 20 4 15 0
20 -16 20 -11 0 -21 -4 -21 -10 0 -5 -5 -10 -12 -10 -6 0 -20 -8 -30 -17 -23
-21 -46 -25 -70 -12 -14 7 -24 7 -33 -1 -8 -6 -32 -13 -55 -15 -23 -1 -44 -5
-47 -8 -3 -4 -13 -2 -23 3 -10 5 -29 5 -46 0 -16 -4 -23 -9 -16 -9 16 -1 16
-31 -1 -31 -7 0 -22 7 -33 15 -13 10 -44 14 -96 15 -43 0 -78 4 -78 8 0 5 -19
17 -42 27 -24 10 -56 28 -73 39 -40 28 -64 42 -102 62 -18 9 -33 23 -33 31 0
8 -4 12 -9 9 -12 -8 -34 21 -26 34 13 21 -23 9 -38 -13z"/>
<path d="M7810 8333 c-56 -20 -126 -133 -115 -185 10 -45 39 -45 92 1 40 36
52 41 95 41 43 0 54 -4 84 -34 29 -29 34 -41 34 -81 l0 -48 -217 -221 c-382
-391 -379 -388 -436 -395 l-42 -6 -3 -72 -3 -73 43 0 c105 0 109 4 488 384
304 305 320 326 320 431 0 148 -118 265 -265 264 -33 0 -67 -3 -75 -6z"/>
<path d="M6930 8241 c-16 -16 -32 -41 -36 -56 -6 -25 13 -47 277 -311 l284
-284 47 47 c62 61 62 73 -2 73 -56 0 -65 10 -76 81 -6 41 -21 59 -223 262
-119 119 -222 217 -229 217 -8 0 -26 -13 -42 -29z"/>
<path d="M6550 7990 c0 -36 49 -94 235 -280 l205 -205 0 60 c0 33 5 76 10 95
l10 35 -149 149 -149 149 -81 5 c-60 3 -81 1 -81 -8z"/>
<path d="M7142 7713 c-37 -48 -62 -97 -62 -120 1 -10 14 9 29 43 15 33 40 70
55 81 15 12 22 24 17 27 -5 3 -23 -11 -39 -31z"/>
<path d="M7542 7244 c-35 -30 -67 -54 -73 -54 -5 0 -9 -92 -9 -230 0 -187 -3
-237 -15 -260 -28 -55 -105 -76 -165 -45 -56 29 -60 49 -60 325 0 236 -1 250
-17 241 -17 -8 -80 -9 -113 0 -23 6 -27 -461 -5 -537 59 -203 315 -263 456
-107 67 74 70 92 67 424 l-3 296 -63 -53z"/>
<path d="M4714 5825 c-89 -53 -108 -190 -37 -257 43 -40 71 -50 135 -50 51 0
67 5 102 29 106 75 95 241 -21 289 -53 23 -132 18 -179 -11z"/>
<path d="M9785 5836 c-114 -49 -124 -215 -19 -289 35 -24 51 -29 102 -29 64 0
92 10 135 50 71 67 51 205 -38 257 -48 29 -129 33 -180 11z"/>
<path d="M4526 4739 c-139 -23 -274 -135 -351 -292 -70 -143 -88 -224 -89
-402 0 -123 4 -166 22 -238 72 -287 256 -492 475 -530 80 -13 162 0 247 40 81
39 196 158 242 253 159 324 105 759 -123 1004 -79 84 -158 134 -248 158 -72
18 -101 20 -175 7z m32 -216 c-2 -22 -9 -29 -31 -31 -18 -2 -29 2 -33 12 -11
28 4 46 36 46 28 0 31 -3 28 -27z m253 -128 c4 -17 7 -49 8 -72 l1 -43 48 0
c55 0 75 -10 70 -36 -2 -15 -15 -20 -58 -24 l-55 -5 -5 -90 c-5 -88 -6 -90
-30 -90 -24 0 -25 3 -34 92 l-9 92 -56 3 c-46 2 -56 6 -59 22 -6 28 25 46 75
46 l43 0 0 58 c0 33 5 63 12 70 20 20 42 9 49 -23z m-364 -291 c8 -21 -13 -42
-28 -27 -13 13 -5 43 11 43 6 0 13 -7 17 -16z m13 -266 c0 -44 9 -56 45 -60
40 -4 39 -30 -2 -42 -30 -8 -33 -13 -33 -46 0 -45 -19 -74 -43 -64 -13 5 -17
18 -17 55 0 45 -2 49 -23 49 -33 0 -62 23 -54 44 4 11 18 16 42 16 33 0 35 2
35 33 0 38 6 47 32 47 14 0 18 -8 18 -32z m405 -133 c0 -25 -4 -30 -25 -30
-16 0 -26 6 -28 18 -6 30 6 49 30 45 18 -2 23 -9 23 -33z"/>
<path d="M9979 4732 c-291 -78 -495 -452 -458 -841 19 -205 82 -354 199 -472
117 -118 241 -165 377 -142 219 38 403 243 475 530 18 72 22 115 22 238 -1
171 -18 255 -80 385 -113 239 -325 358 -535 302z m206 -212 c0 -21 -5 -25 -30
-25 -25 0 -30 4 -33 28 -3 27 -1 28 30 25 28 -2 33 -7 33 -28z m-267 -102 c7
-7 12 -38 12 -70 l0 -58 43 0 c50 0 81 -18 75 -46 -3 -16 -13 -20 -59 -22
l-56 -3 -9 -92 c-9 -89 -10 -92 -34 -92 -24 0 -25 2 -30 90 l-5 90 -55 5 c-43
4 -56 9 -58 24 -5 25 14 36 69 36 l46 0 6 65 c4 36 9 70 12 75 8 14 29 12 43
-2z m349 -314 c8 -21 -13 -42 -28 -27 -13 13 -5 43 11 43 6 0 13 -7 17 -16z
m1 -276 c3 -36 5 -38 38 -38 23 0 37 -6 41 -16 8 -21 -21 -44 -54 -44 -21 0
-23 -4 -23 -49 0 -37 -4 -50 -17 -55 -24 -10 -43 19 -43 64 0 33 -3 38 -32 46
-42 12 -43 38 -3 42 36 4 45 16 45 60 0 29 3 33 23 30 18 -2 23 -10 25 -40z
m-403 -123 c0 -25 -4 -30 -25 -30 -16 0 -26 6 -28 18 -6 30 6 49 30 45 18 -2
23 -9 23 -33z"/>
<path d="M7231 3320 c-59 -13 -128 -55 -146 -90 -8 -16 -15 -48 -15 -71 0 -33
6 -47 33 -74 44 -44 98 -57 237 -57 139 0 193 13 237 57 27 27 33 41 33 77 0
100 -84 157 -242 163 -51 2 -113 0 -137 -5z"/>
<path d="M7050 2590 c-142 -81 -259 -155 -277 -175 -43 -45 -44 -86 -4 -126
54 -53 78 -46 336 101 125 72 231 130 235 130 4 0 110 -58 235 -130 258 -147
282 -154 336 -101 42 43 40 83 -8 130 -21 21 -146 99 -278 174 -210 120 -246
137 -285 137 -40 0 -75 -17 -290 -140z"/>
</g>
</svg>
